<?xml version="1.0" encoding="utf-8"?>
<!-- Generator: Adobe Illustrator 19.2.1, SVG Export Plug-In . SVG Version: 6.00 Build 0)  -->
<svg version="1.1" id="Layer_1" xmlns="http://www.w3.org/2000/svg" xmlns:xlink="http://www.w3.org/1999/xlink" x="0px" y="0px"
	 viewBox="0 0 150 66.5" style="enable-background:new 0 0 150 66.5;" xml:space="preserve">
<style type="text/css">
	.st0{fill:#7AC143;}
	.st1{fill:#00723F;}
</style>
<g>
	<path class="st0" d="M58.8,9.8c2.7,0.5,4.1,1.5,6.2,4.7c2.3,3.6,5.6,8.7,5.7,8.9c0.3,0.4,0.4,0.4,0.6,0.4c0.2,0,0.3,0,0.6-0.4
		c0.2-0.3,3.4-5.3,5.8-8.9c2.1-3.2,3.5-4.3,6.2-4.7c0.8-0.1,1.4-0.5,1.4-1.2c0-1.5-2.9-4-6.4-4c-0.8,0-1.2-0.4-1.4-0.9
		c-1-2.2-3.2-3.7-6.1-3.7c-2.9,0-5.1,1.5-6.1,3.7c-0.2,0.5-0.6,0.9-1.4,0.9c-3.5,0-6.4,2.5-6.4,4C57.5,9.3,58,9.7,58.8,9.8L58.8,9.8
		z"/>
	<path class="st1" d="M90,11.3c4.5,0,6.1,2.4,6.1,3.3c0,0.4-0.2,0.7-0.9,0.7c-3.2,0-5.2,1.9-6.8,4.4c-0.3,0.5-1.1,1.8-2.2,3.5h-10
		c1.9-3,3.4-5.4,3.9-6.1C83.1,12.7,86.7,11.3,90,11.3L90,11.3z M90.6,23.3h10.1c0.9-1,1.7-1.3,2.9-1.3c0.8,0,1-0.5,1-0.9
		c0-1.2-1.9-3.1-5.5-3.1C96.5,18,93.3,19.1,90.6,23.3L90.6,23.3z M47.4,15.3c3.2,0,5.2,1.9,6.8,4.4c0.4,0.6,1.2,2,2.2,3.5h10
		c-1.5-2.3-3.1-4.9-3.9-6.1c-2.9-4.5-6.4-5.9-9.8-5.9c-4.5,0-6.1,2.4-6.1,3.3C46.6,15,46.8,15.3,47.4,15.3L47.4,15.3z M42,23.3h10.1
		C49.4,19,46.3,18,43.6,18c-3.5,0-5.5,1.8-5.5,3.1c0,0.4,0.2,0.9,1,0.9C40.4,22,41.1,22.3,42,23.3L42,23.3z"/>
	<path class="st1" d="M99.8,28.7h-3.6l-9.3,21h4.2l2.1-4.9h9.4l2.1,4.9h4.4L99.8,28.7L99.8,28.7z M101.2,41.2h-6.4l3.2-7.4
		L101.2,41.2L101.2,41.2z"/>
	<path class="st1" d="M65.6,39.3c0-6.3,4.7-10.8,10.9-10.8c4.6,0,7.3,2.6,7.9,3.1l-2.5,3c-0.6-0.6-2.5-2.3-5.4-2.3
		c-4,0-6.8,3.2-6.8,7c0,3.8,2.8,7.1,7,7.1c2.4,0,4-0.8,4.3-0.9v-4h-4.7v-3.7H85v10.4c-0.6,0.3-3.9,2-8.5,2
		C69.9,50.1,65.6,45.3,65.6,39.3L65.6,39.3z"/>
	<polygon class="st1" points="23,49.8 29.1,28.9 24.9,28.9 21,43.1 16.6,28.8 12.7,28.8 8.2,43.1 4.3,28.9 0,28.9 6.2,49.8 
		9.8,49.8 14.5,35 19.3,49.8 	"/>
	<polygon class="st1" points="57,42.6 46.3,28.9 42.7,28.9 42.7,40.1 42.7,49.7 46.7,49.7 46.7,35.6 57.6,49.7 60.9,49.7 60.9,40.1 
		60.9,28.9 57,28.9 	"/>
	<polygon class="st1" points="32.1,39.6 32.1,28.9 36.2,28.9 36.2,39.3 36.2,49.7 32.1,49.7 	"/>
	<polygon class="st1" points="113.6,40.9 113.6,32.6 107.2,32.6 107.2,28.9 123.9,28.9 123.9,32.6 117.6,32.6 117.6,41.1 
		117.6,49.7 113.6,49.7 	"/>
	<polygon class="st1" points="126.9,39.9 126.9,28.9 142.1,28.9 142.1,32.9 130.9,32.9 130.9,37.3 140.8,37.3 140.8,41.1 
		130.9,41.1 130.9,45.6 142.2,45.6 142.2,49.7 126.9,49.7 	"/>
	<polygon class="st0" points="33.2,62.5 29.3,56.4 31.6,56.4 34.2,60.7 36.8,56.4 39.1,56.4 35.2,62.4 35.2,66.4 33.2,66.4 	"/>
	<path class="st0" d="M106.3,56.3h-1.7l-4.5,10.1h2l1-2.4h4.5l1,2.4h2.1L106.3,56.3L106.3,56.3z M107,62.3h-3.1l1.5-3.6L107,62.3
		L107,62.3z"/>
	<path class="st0" d="M83.2,56.4h-3.7v5.2v4.9h3.8c3.3,0,5.3-2.2,5.3-5C88.5,59,86.8,56.4,83.2,56.4 M83.2,64.7h-1.8v-2.8v-3.7h1.8
		c2,0,3.3,1.4,3.3,3.3C86.5,63.3,85.2,64.7,83.2,64.7"/>
	<polygon class="st0" points="62.2,60.4 59.8,56.4 57.5,56.4 61.2,62.3 61.2,66.4 63.2,66.4 63.2,62.3 66.9,56.4 64.6,56.4 	"/>
	<polygon class="st0" points="53.8,66.5 56.7,56.4 54.7,56.4 52.8,63.3 50.7,56.4 48.8,56.4 46.6,63.3 44.8,56.4 42.7,56.4 
		45.7,66.5 47.4,66.5 49.7,59.3 52,66.5 	"/>
	<polygon class="st0" points="74.9,63 69.8,56.4 68,56.4 68,61.1 68,66.4 69.9,66.4 69.9,59.6 75.2,66.4 76.8,66.4 76.8,61.6 
		76.8,56.4 74.9,56.4 	"/>
	<polygon class="st0" points="98.8,66.4 98.8,61.3 98.8,56.4 96.9,56.4 96.9,60.5 92.4,60.5 92.4,56.4 90.4,56.4 90.4,61.8 
		90.4,66.4 92.4,66.4 92.4,62.3 96.9,62.3 96.9,66.4 	"/>
	<polygon class="st0" points="117,61 114,56.4 112,56.4 112,61.3 112,66.4 113.9,66.4 113.9,59.7 116.8,64 117,64 119.9,59.6 
		119.9,66.4 121.9,66.4 121.9,61.8 121.9,56.4 119.9,56.4 	"/>
	<path class="st0" d="M28.6,59c0,1.2-0.7,1.9-1.4,2.3c1.2,0.4,2,1.1,2,2.4c0,1.8-1.5,2.8-3.7,2.8h-4.6v-4.6v-5.4h4.5
		C27.6,56.4,28.6,57.6,28.6,59L28.6,59z M26.6,59.3c0-0.6-0.5-1.2-1.7-1.2h-2.2v2.4H25C26.1,60.5,26.6,60,26.6,59.3L26.6,59.3z
		 M27.2,63.5c0-0.7-0.5-1.2-1.8-1.2h-2.6v2.4h2.6C26.7,64.7,27.2,64.2,27.2,63.5L27.2,63.5z"/>
	<path class="st1" d="M145.1,31.3L145.1,31.3c0-1.3,1.1-2.4,2.4-2.4c1.4,0,2.4,1.1,2.4,2.4v0c0,1.3-1.1,2.4-2.4,2.4
		C146.2,33.7,145.1,32.6,145.1,31.3L145.1,31.3z M149.7,31.3L149.7,31.3c0-1.2-0.9-2.2-2.1-2.2c-1.2,0-2.2,1-2.2,2.2v0
		c0,1.2,0.9,2.2,2.2,2.2C148.8,33.4,149.7,32.5,149.7,31.3L149.7,31.3z M146.6,29.9h1.1c0.4,0,0.6,0.1,0.8,0.3l0.2,0.6v0
		c0,0.4-0.2,0.7-0.6,0.8l0.6,0.9h-0.7l-0.5-0.8h0h-0.4v0.8h-0.6L146.6,29.9L146.6,29.9z M147.7,31.2c0.3,0,0.4-0.2,0.4-0.4v0
		c0-0.2-0.2-0.4-0.5-0.4h-0.6v0.8H147.7L147.7,31.2z"/>
</g>
</svg>
